<?xml version="1.0" encoding="UTF-8" standalone="no"?>
<!-- Generator: Adobe Illustrator 16.0.0, SVG Export Plug-In . SVG Version: 6.00 Build 0)  -->

<svg
   xmlns:dc="http://purl.org/dc/elements/1.1/"
   xmlns:cc="http://creativecommons.org/ns#"
   xmlns:rdf="http://www.w3.org/1999/02/22-rdf-syntax-ns#"
   xmlns:svg="http://www.w3.org/2000/svg"
   xmlns="http://www.w3.org/2000/svg"
   xmlns:sodipodi="http://sodipodi.sourceforge.net/DTD/sodipodi-0.dtd"
   xmlns:inkscape="http://www.inkscape.org/namespaces/inkscape"
   version="1.1"
   id="Layer_1"
   x="0px"
   y="0px"
   width="56.254997"
   height="56.762997"
   viewBox="0 0 56.254999 56.762998"
   enable-background="new 0 0 211.68 57.6"
   xml:space="preserve"
   inkscape:version="0.48.4 r9939"
   sodipodi:docname="icon.svg"><metadata
     id="metadata3091"><rdf:RDF><cc:Work
         rdf:about=""><dc:format>image/svg+xml</dc:format><dc:type
           rdf:resource="http://purl.org/dc/dcmitype/StillImage" /></cc:Work></rdf:RDF></metadata><defs
     id="defs3089" /><sodipodi:namedview
     pagecolor="#ffffff"
     bordercolor="#666666"
     borderopacity="1"
     objecttolerance="10"
     gridtolerance="10"
     guidetolerance="10"
     inkscape:pageopacity="0"
     inkscape:pageshadow="2"
     inkscape:window-width="2499"
     inkscape:window-height="1576"
     id="namedview3087"
     showgrid="false"
     inkscape:zoom="6.4058959"
     inkscape:cx="105.12"
     inkscape:cy="28.394999"
     inkscape:window-x="1981"
     inkscape:window-y="24"
     inkscape:window-maximized="1"
     inkscape:current-layer="Layer_1"
     fit-margin-top="0"
     fit-margin-left="0"
     fit-margin-right="0"
     fit-margin-bottom="0" /><path
     d="M 28.367,-2.335529e-7 C 12.966,-2.335529e-7 0,12.485 0,27.886 0,28.385 0.01,56.763 0.01,56.763 l 28.357,-0.03 c 15.402,0 27.888,-12.966 27.888,-28.365 C 56.255,12.966 43.769,-2.335529e-7 28.367,-2.335529e-7 z"
     id="path3075"
     inkscape:connector-curvature="0"
     style="fill:#231f20" /><path
     d="m 28.637,10.793 c -9.545,0 -17.284,7.739 -17.284,17.285 0,2.981 0.755,5.787 2.085,8.237 l -3.125,10.064 11.232,-2.541 c 2.165,0.975 4.564,1.521 7.092,1.521 9.547,0 17.285,-7.736 17.285,-17.281 0,-9.546 -7.738,-17.285 -17.285,-17.285 z"
     id="path3077"
     inkscape:connector-curvature="0"
     style="fill:#f2e88f" /><path
     d="m 42.356,17.567 c 2.235,2.914 3.566,6.555 3.566,10.511 0,9.545 -7.738,17.281 -17.285,17.281 -2.527,0 -4.927,-0.546 -7.092,-1.521 L 10.313,46.379 21.75,45.026 c 2.05,1.194 4.379,1.992 6.894,2.255 9.494,0.999 17.999,-5.889 18.997,-15.384 0.582,-5.548 -1.533,-10.758 -5.285,-14.33 z"
     id="path3079"
     inkscape:connector-curvature="0"
     style="fill:#00aeef" /><path
     d="m 39.169,14.375 c 2.527,2.664 4.231,6.149 4.645,10.082 0.998,9.492 -5.891,17.996 -15.383,18.994 -2.515,0.266 -4.958,-0.027 -7.212,-0.772 L 10.314,46.381 21.546,43.84 c 2.165,0.975 4.564,1.521 7.092,1.521 9.547,0 17.285,-7.736 17.285,-17.281 -0.001,-5.583 -2.648,-10.544 -6.754,-13.705 z"
     id="path3081"
     inkscape:connector-curvature="0"
     style="fill:#00953a" /><path
     d="m 14.474,36.697 c -1.067,-2.574 -1.525,-5.445 -1.213,-8.41 0.999,-9.494 9.502,-16.381 18.997,-15.384 3.942,0.415 7.433,2.126 10.098,4.664 -3.16,-4.117 -8.128,-6.774 -13.718,-6.774 -9.545,0 -17.284,7.739 -17.284,17.285 0,2.981 0.755,5.787 2.085,8.237 l -3.125,10.064 4.16,-9.682 z"
     id="path3083"
     inkscape:connector-curvature="0"
     style="fill:#e63c2f" /><path
     d="m 13.439,36.315 c -1.33,-2.45 -2.085,-5.256 -2.085,-8.237 0,-9.545 7.739,-17.285 17.284,-17.285 3.965,0 7.614,1.338 10.532,3.582 C 35.596,10.612 30.379,8.4889998 24.818,9.0729998 15.324,10.072 8.437,18.576 9.435,28.07 c 0.312,2.966 1.356,5.678 2.936,7.976 l -2.056,10.335 3.124,-10.066 z"
     id="path3085"
     inkscape:connector-curvature="0"
     style="fill:#d13239" /></svg>